Patient4_TMGait_0pt3_01_right_25_GRF.mot
version=1
nRows=45
nColumns=19
inDegrees=no
endheader
time	F1x	F1y	F1z	M1x	M1y	M1z	F2x	F2y	F2z	M2x	M2y	M2z	EC1x	EC1y	EC1z	EC2x	EC2y	EC2z
45.94	-3.6657	676.7496	52.5573	-254.0176	-54.3496	677.1534	0.23991	56.2117	-9.11	20.4534	7.7125	44.3677	-0.0592	0.0182	-0.0073	-0.0462	0.0165	0.9585
45.9596	-4.6301	707.0909	56.1003	-265.6306	-57.3023	703.4088	0.24202	47.9703	-7.0718	17.1663	6.0192	38.3067	-0.0592	0.0182	-0.0073	-0.0462	0.0165	0.9585
45.9791	-5.1638	742.9585	59.9387	-279.3565	-60.3496	734.4181	0.017604	38.5662	-5.1012	13.5837	4.4498	31.1938	-0.0592	0.0182	-0.0073	-0.0462	0.0165	0.9585
45.9987	-5.2066	782.0346	63.8105	-294.3167	-63.2456	768.0034	-0.30816	28.9705	-3.3668	10.0546	3.1019	23.7945	-0.0592	0.0182	-0.0073	-0.0462	0.0165	0.9585
46.0183	-4.8028	821.3579	67.4647	-309.3852	-65.778	801.3725	-0.55776	20.1507	-1.976	6.8957	2.0063	16.9016	-0.0592	0.0182	-0.0073	-0.0462	0.0165	0.9585
46.0379	-4.0293	857.5253	70.6668	-323.2631	-67.7541	831.341	-0.64121	12.8235	-0.95984	4.3238	1.163	11.1145	-0.0592	0.0182	-0.0073	-0.0462	0.0165	0.9585
46.0574	-2.9535	886.8827	73.2201	-334.5472	-69.016	854.5343	-0.60864	7.2965	-0.2812	2.4156	0.56264	6.7087	-0.0592	0.0182	-0.0073	-0.0462	0.0165	0.9585
46.077	-1.6382	905.93	74.9787	-341.8894	-69.4581	867.776	-0.51637	3.4632	0.12463	1.1139	0.17368	3.6185	-0.0592	0.0182	-0.0073	-0.0462	0.0165	0.9585
46.0966	-0.13409	911.9835	75.8423	-344.2578	-69.0196	868.6836	-0.40228	0.97959	0.33088	0.28578	-0.051703	1.5672	-0.0592	0.0182	-0.0073	-0.0462	0.0165	0.9585
46.1161	1.5559	903.8673	75.7333	-341.2093	-67.646	856.2859	-0.28911	-0.59267	0.40679	-0.22861	-0.16706	0.1908	-0.0592	0.0182	-0.0073	-0.0462	0.0165	0.9585
46.1357	3.5058	882.3071	74.6145	-333.0415	-65.2896	831.3517	-0.18707	-1.6941	0.41198	-0.58641	-0.22392	-0.88341	-0.0592	0.0182	-0.0073	-0.0462	0.0165	0.9585
46.1553	5.8544	849.9005	72.5259	-320.7728	-61.9432	796.3267	-0.095738	-2.7031	0.39108	-0.92067	-0.26238	-1.9807	-0.0592	0.0182	-0.0073	-0.0462	0.0165	0.9585
46.1749	8.7605	810.7499	69.6142	-305.9944	-57.6759	754.9858	-0.0094181	-3.8918	0.36955	-1.3247	-0.30637	-3.3286	-0.0592	0.0182	-0.0073	-0.0462	0.0165	0.9585
46.1944	12.3372	769.8535	66.139	-290.6261	-52.662	711.8849	0.079593	-5.3842	0.35809	-1.84	-0.36446	-5.0127	-0.0592	0.0182	-0.0073	-0.0462	0.0165	0.9585
46.214	16.6243	732.3319	62.4483	-276.6191	-47.1717	671.663	0.17935	-7.1142	0.35636	-2.4437	-0.43336	-6.9402	-0.0592	0.0182	-0.0073	-0.0462	0.0165	0.9585
46.2336	21.5813	702.615	58.9244	-265.6467	-41.5307	638.3203	0.29447	-8.7732	0.34615	-3.0278	-0.49227	-8.7835	-0.0592	0.0182	-0.0073	-0.0462	0.0165	0.9585
46.2531	27.0961	683.6778	55.9257	-258.8134	-36.0769	614.5452	0.4172	-9.7465	0.28887	-3.3748	-0.4955	-9.9063	-0.0592	0.0182	-0.0073	-0.0462	0.0165	0.9585
46.2727	32.9911	676.4211	53.7433	-256.4194	-31.1278	601.1976	0.52151	-9.0555	0.12738	-3.1373	-0.36749	-9.293	-0.0592	0.0182	-0.0073	-0.0462	0.0165	0.9585
46.2923	39.0042	679.3903	52.5555	-257.8548	-26.9512	597.1093	0.55665	-5.327	-0.20889	-1.8281	-0.0065445	-5.5095	-0.0592	0.0182	-0.0073	-0.0462	0.0165	0.9585
46.3119	44.7752	688.9547	52.3862	-261.6737	-23.7344	599.272	0.44459	3.1758	-0.79954	1.1682	0.71138	3.2672	-0.0592	0.0182	-0.0073	-0.0462	0.0165	0.9585
46.3314	49.8472	699.9437	53.0938	-265.8458	-21.5746	603.4038	0.082824	18.4005	-1.7241	6.5442	1.9175	19.0902	-0.0592	0.0182	-0.0073	-0.0462	0.0165	0.9585
46.351	53.7095	706.6531	54.3854	-268.155	-20.4689	604.7906	-0.64984	42.1812	-3.0388	14.9542	3.7225	43.9057	-0.0592	0.0182	-0.0073	-0.0462	0.0165	0.9585
46.3706	55.9278	704.0528	55.8355	-266.6827	-20.2757	599.2817	-1.9019	75.6789	-4.7421	26.8175	6.1801	78.9739	-0.0592	0.0182	-0.0073	-0.0462	0.0165	0.9585
46.3901	56.2888	688.8428	56.9341	-260.2206	-20.6932	584.1277	-4.0567	118.7221	-6.735	42.083	9.3112	124.1657	-0.0592	0.0182	-0.0073	-0.0462	0.0165	0.9585
46.4097	54.8406	660.0136	57.191	-248.4746	-21.3193	558.4176	-7.8065	169.3311	-8.9231	60.0457	13.24	177.4706	-0.0592	0.0182	-0.0073	-0.0462	0.0165	0.9585
46.4293	51.867	618.8318	56.258	-232.04	-21.7564	523.0634	-13.341	224.0862	-11.596	79.4359	18.3092	235.3629	-0.0592	0.0182	-0.0073	-0.0462	0.0165	0.9585
46.4489	47.8243	568.2353	54.0273	-212.1434	-21.7174	480.3094	-20.0694	279.4474	-15.0763	98.9206	24.6096	294.0935	-0.0592	0.0182	-0.0073	-0.0462	0.0165	0.9585
46.4684	43.2086	511.8385	50.619	-190.2412	-21.0707	432.9576	-27.161	333.5041	-19.2751	117.7825	31.7368	351.5502	-0.0592	0.0182	-0.0073	-0.0462	0.0165	0.9585
46.488	38.3963	452.9102	46.2407	-167.6217	-19.7972	383.5807	-33.8761	385.3984	-23.8012	135.7269	39.0258	406.6907	-0.0592	0.0182	-0.0073	-0.0462	0.0165	0.9585
46.5076	33.6125	394.0356	41.1112	-145.2736	-17.9474	334.249	-39.5679	434.3571	-28.2379	152.5162	45.827	458.5499	-0.0592	0.0182	-0.0073	-0.0462	0.0165	0.9585
46.5271	28.9652	337.3161	35.5088	-123.963	-15.6687	286.6805	-43.7463	479.4099	-32.2859	167.8574	51.6634	505.9757	-0.0592	0.0182	-0.0073	-0.0462	0.0165	0.9585
46.5467	24.5017	284.5799	29.7856	-104.3197	-13.1966	242.4027	-46.2025	519.5148	-35.712	181.4472	56.2236	547.7942	-0.0592	0.0182	-0.0073	-0.0462	0.0165	0.9585
46.5663	20.2948	237.4124	24.3248	-86.8663	-10.7919	202.7577	-47.0202	553.9162	-38.2936	193.0924	59.3113	583.1832	-0.0592	0.0182	-0.0073	-0.0462	0.0165	0.9585
46.5859	16.4783	197.0321	19.4734	-71.99	-8.6756	168.7756	-46.4738	582.4441	-39.8657	202.7969	60.8542	611.9703	-0.0592	0.0182	-0.0073	-0.0462	0.0165	0.9585
46.6054	13.2085	164.0465	15.4712	-59.8646	-6.9823	140.9597	-44.8946	605.4539	-40.4113	210.7172	60.9458	634.5523	-0.0592	0.0182	-0.0073	-0.0462	0.0165	0.9585
46.625	10.5935	138.2089	12.4162	-50.3682	-5.7535	119.0909	-42.5956	623.6131	-40.0762	217.0765	59.8373	651.6561	-0.0592	0.0182	-0.0073	-0.0462	0.0165	0.9585
46.6446	8.6133	118.3891	10.2589	-43.0721	-4.9612	102.217	-39.8478	637.759	-39.1445	222.1161	57.9052	664.1845	-0.0592	0.0182	-0.0073	-0.0462	0.0165	0.9585
46.6641	7.1054	102.8187	8.8297	-37.3273	-4.5346	88.8556	-36.8625	648.8235	-38.0078	226.0822	55.6173	673.1312	-0.0592	0.0182	-0.0073	-0.0462	0.0165	0.9585
46.6837	5.8499	89.5948	7.9028	-32.4443	-4.3781	77.4183	-33.7875	657.8075	-37.0843	229.2385	53.4502	679.5566	-0.0592	0.0182	-0.0073	-0.0462	0.0165	0.9585
46.7033	4.6557	77.1874	7.2492	-27.8736	-4.3805	66.6389	-30.7428	665.7489	-36.6883	231.8797	51.774	684.5682	-0.0592	0.0182	-0.0073	-0.0462	0.0165	0.9585
46.7229	3.4148	64.721	6.6716	-23.3035	-4.4261	55.8042	-27.8667	673.5935	-36.9671	234.2997	50.8069	689.2083	-0.0592	0.0182	-0.0073	-0.0462	0.0165	0.9585
46.7424	2.1322	52.0232	6.0271	-18.6747	-4.3993	44.7914	-25.3348	682.008	-37.9183	236.7321	50.6322	694.2686	-0.0592	0.0182	-0.0073	-0.0462	0.0165	0.9585
46.762	0.91611	39.5015	5.2418	-14.1334	-4.2048	33.9693	-23.3075	691.2009	-39.4065	239.2907	51.1946	700.0845	-0.0592	0.0182	-0.0073	-0.0462	0.0165	0.9585
46.7816	-0.077767	27.8804	4.3078	-9.9378	-3.7861	23.9635	-21.8381	700.9155	-41.1891	241.9672	52.2915	706.4941	-0.0592	0.0182	-0.0073	-0.0462	0.0165	0.9585
46.8011	-0.71547	17.8875	3.2831	-6.3446	-3.151	15.3836	-20.8457	710.6944	-42.959	244.7102	53.601	713.0801	-0.0592	0.0182	-0.0073	-0.0462	0.0165	0.9585
